<svg id="svg" version="1.1" xmlns="http://www.w3.org/2000/svg" xmlns:xlink="http://www.w3.org/1999/xlink" width="400" height="96.4180362410451" viewBox="0, 0, 400,96.4180362410451"><g id="svgg"><path id="path0" d="M324.771 18.787 C 324.723 18.950,324.634 19.608,324.573 20.250 C 324.511 20.892,324.439 21.537,324.412 21.683 C 324.363 21.948,324.313 22.370,323.992 25.250 C 323.900 26.075,323.785 26.994,323.738 27.292 L 323.652 27.833 320.266 27.833 L 316.881 27.833 316.770 29.042 C 316.708 29.706,316.612 30.644,316.556 31.125 L 316.454 32.000 319.810 32.000 C 322.385 32.000,323.166 32.049,323.165 32.208 C 323.165 32.323,323.090 33.054,322.999 33.833 C 322.908 34.612,322.611 37.200,322.340 39.583 C 322.068 41.967,321.610 45.979,321.323 48.500 C 320.535 55.412,320.741 57.358,322.454 59.189 C 324.506 61.384,328.472 61.991,333.018 60.807 L 334.286 60.476 334.392 59.113 C 334.585 56.635,334.543 55.947,334.208 56.085 C 330.700 57.531,327.500 57.273,326.566 55.467 C 326.100 54.565,325.988 52.762,326.237 50.167 C 326.294 49.571,326.375 48.717,326.416 48.269 C 326.457 47.821,326.540 47.146,326.600 46.769 C 326.660 46.392,326.732 45.858,326.759 45.583 C 326.786 45.308,326.852 44.746,326.907 44.333 C 326.961 43.921,327.043 43.283,327.089 42.917 C 327.136 42.550,327.209 41.987,327.252 41.667 C 327.294 41.346,327.363 40.746,327.405 40.333 C 327.550 38.873,327.856 36.226,328.093 34.366 C 328.225 33.331,328.333 32.374,328.333 32.241 C 328.333 32.036,329.024 32.000,332.903 32.000 L 337.474 32.000 337.560 31.542 C 337.607 31.290,337.690 30.633,337.744 30.083 C 337.799 29.533,337.885 28.802,337.936 28.458 L 338.029 27.833 333.410 27.833 L 328.791 27.833 328.887 27.208 C 329.104 25.794,329.710 20.190,329.730 19.417 L 329.750 18.583 327.304 18.537 C 325.082 18.495,324.851 18.518,324.771 18.787 M361.667 25.110 C 357.548 25.288,353.525 26.057,349.000 27.533 L 346.917 28.212 344.500 28.107 C 343.171 28.050,341.577 27.899,340.958 27.772 C 340.145 27.605,339.826 27.593,339.808 27.729 C 339.714 28.421,339.480 29.363,339.326 29.661 C 337.652 32.914,337.417 36.342,338.732 38.334 C 339.652 39.729,341.692 41.333,342.544 41.333 C 343.120 41.333,343.155 41.237,342.898 40.381 C 341.070 34.309,349.447 30.873,352.360 36.500 C 352.851 37.449,352.980 39.412,352.620 40.452 C 352.486 40.838,352.417 41.195,352.466 41.244 C 352.627 41.405,378.000 41.342,378.000 41.180 C 378.000 41.096,377.881 40.561,377.735 39.991 C 376.497 35.162,382.437 31.595,386.153 34.936 C 387.672 36.302,388.249 38.104,387.768 39.980 C 387.621 40.556,387.500 41.096,387.500 41.180 C 387.500 41.269,389.142 41.333,391.406 41.333 L 395.312 41.333 395.865 40.212 C 397.297 37.301,396.072 34.370,392.755 32.772 C 390.425 31.650,389.980 31.464,389.577 31.440 C 389.351 31.427,389.167 31.375,389.167 31.325 C 389.167 31.236,387.592 30.870,386.583 30.725 C 386.308 30.685,385.708 30.583,385.250 30.497 C 383.193 30.113,381.542 30.028,373.835 29.908 C 370.306 29.853,367.381 29.767,367.335 29.717 C 367.288 29.667,370.306 29.661,374.042 29.705 C 378.930 29.762,380.832 29.733,380.830 29.601 C 380.819 29.038,376.696 26.911,373.570 25.856 L 371.583 25.185 367.167 25.124 C 364.738 25.090,362.262 25.084,361.667 25.110 M222.083 27.248 C 218.826 27.968,215.850 29.819,214.044 32.248 L 213.302 33.246 213.408 31.665 C 213.466 30.795,213.529 29.596,213.548 29.000 L 213.583 27.917 211.208 27.870 C 208.835 27.824,208.833 27.824,208.833 28.204 C 208.830 29.733,207.765 40.069,207.222 43.833 C 207.176 44.154,207.122 44.682,207.101 45.005 C 207.081 45.329,207.007 45.687,206.937 45.801 C 206.866 45.915,206.822 46.250,206.838 46.546 C 206.854 46.841,206.850 47.140,206.829 47.208 C 206.747 47.480,206.726 47.619,206.612 48.583 C 206.547 49.133,206.456 50.137,206.409 50.815 C 206.363 51.492,206.294 52.096,206.256 52.157 C 206.219 52.218,206.139 52.826,206.079 53.509 C 206.019 54.191,205.870 55.500,205.746 56.417 C 205.623 57.333,205.469 58.740,205.405 59.542 L 205.287 61.000 207.803 61.000 L 210.318 61.000 210.407 60.458 C 210.456 60.160,210.612 58.867,210.755 57.583 C 212.665 40.374,212.735 40.004,214.719 36.651 C 215.608 35.148,218.023 32.667,218.596 32.667 C 218.711 32.667,218.831 32.604,218.861 32.528 C 219.372 31.257,224.608 30.864,226.795 31.932 C 230.391 33.689,230.516 37.552,227.675 59.167 C 227.584 59.854,227.508 60.548,227.505 60.708 C 227.500 60.973,227.727 61.000,229.981 61.000 L 232.463 61.000 232.558 60.458 C 232.611 60.160,233.071 56.167,233.582 51.583 C 235.060 38.309,235.723 36.205,239.367 33.240 C 241.846 31.224,247.276 30.540,248.865 32.044 C 248.985 32.157,249.350 32.429,249.675 32.648 C 252.246 34.372,253.027 39.821,251.673 46.583 C 251.581 47.042,251.532 47.567,251.565 47.750 C 251.597 47.933,251.564 48.159,251.492 48.252 C 251.419 48.344,251.375 48.682,251.394 49.002 C 251.414 49.322,251.377 49.658,251.313 49.750 C 251.249 49.842,251.110 50.892,251.005 52.083 C 250.899 53.275,250.782 54.475,250.743 54.750 C 250.705 55.025,250.635 55.663,250.588 56.167 C 250.541 56.671,250.398 57.832,250.271 58.747 C 249.942 61.126,249.710 60.909,252.641 60.963 C 254.030 60.988,255.167 60.981,255.167 60.947 C 255.167 60.877,256.503 49.038,256.996 44.750 C 257.629 39.229,257.692 38.192,257.494 36.504 C 256.747 30.147,253.157 27.096,246.417 27.087 C 241.273 27.080,237.772 28.794,234.757 32.793 L 234.097 33.668 233.618 32.459 C 231.937 28.211,227.267 26.102,222.083 27.248 M274.110 27.173 C 270.722 27.703,266.744 29.412,264.507 31.299 L 263.930 31.785 264.246 32.268 C 264.419 32.533,264.961 33.292,265.451 33.955 L 266.342 35.160 267.517 34.321 C 273.812 29.829,281.902 30.247,283.870 35.167 C 284.217 36.034,284.450 40.123,284.167 40.382 C 284.121 40.424,282.096 40.544,279.667 40.649 C 265.315 41.270,259.686 44.748,259.670 53.007 C 259.649 62.952,275.075 65.232,282.226 56.342 L 282.702 55.750 282.582 57.685 C 282.517 58.750,282.515 59.931,282.579 60.310 L 282.696 61.000 284.931 61.000 L 287.167 61.000 287.168 58.458 C 287.169 55.985,287.283 54.803,288.852 41.000 C 289.647 34.013,288.275 30.501,283.882 28.274 C 281.784 27.212,277.178 26.692,274.110 27.173 M307.404 27.247 C 304.280 27.961,301.461 29.839,299.507 32.509 L 298.965 33.250 299.060 32.417 C 299.113 31.958,299.204 30.738,299.263 29.704 L 299.370 27.824 296.894 27.870 L 294.417 27.917 294.379 28.667 C 294.298 30.311,293.962 34.070,293.651 36.833 C 293.470 38.438,293.022 42.375,292.655 45.583 C 292.288 48.792,291.766 53.363,291.494 55.743 C 291.222 58.122,291.000 60.278,291.000 60.534 L 291.000 61.000 293.478 61.000 L 295.957 61.000 296.077 59.627 C 296.143 58.871,296.244 58.177,296.302 58.085 C 296.437 57.869,296.455 57.741,296.575 56.110 C 296.630 55.362,296.708 54.487,296.749 54.167 C 296.849 53.373,297.011 52.041,297.092 51.333 C 297.129 51.012,297.188 50.563,297.224 50.333 C 297.260 50.104,297.379 49.167,297.489 48.250 C 298.063 43.480,298.218 42.406,298.499 41.253 C 299.341 37.802,301.036 35.021,303.173 33.583 C 303.582 33.308,304.006 32.999,304.116 32.896 C 304.225 32.793,304.657 32.608,305.074 32.485 C 305.492 32.361,305.833 32.210,305.833 32.149 C 305.833 31.721,308.268 31.613,311.903 31.881 L 312.389 31.917 312.921 29.750 C 313.374 27.904,313.419 27.547,313.224 27.337 C 312.902 26.990,308.806 26.926,307.404 27.247 M365.125 29.623 C 364.690 29.657,363.977 29.657,363.542 29.623 C 363.106 29.588,363.462 29.560,364.333 29.560 C 365.204 29.560,365.560 29.588,365.125 29.623 M346.332 34.146 C 341.229 35.818,342.178 43.199,347.531 43.470 C 352.635 43.728,354.478 36.802,349.928 34.460 C 349.191 34.081,347.090 33.898,346.332 34.146 M381.158 34.184 C 379.321 34.701,377.926 36.665,377.926 38.735 C 377.926 44.809,386.902 45.198,387.594 39.153 C 387.967 35.892,384.528 33.237,381.158 34.184 M349.129 36.701 C 350.740 37.679,350.547 40.101,348.788 40.977 C 346.336 42.197,344.003 39.008,345.934 37.077 C 346.880 36.131,347.978 36.002,349.129 36.701 M383.352 36.336 C 385.940 37.055,385.854 40.751,383.237 41.241 C 380.123 41.826,378.961 37.473,381.947 36.408 C 382.728 36.130,382.628 36.135,383.352 36.336 M283.666 44.867 C 283.659 47.356,282.231 51.878,281.162 52.793 C 280.981 52.948,280.833 53.141,280.833 53.223 C 280.833 53.306,280.361 53.833,279.783 54.395 C 274.609 59.431,265.274 58.428,264.869 52.794 C 264.526 48.006,268.921 45.212,277.612 44.694 C 282.473 44.404,283.667 44.438,283.666 44.867 M159.083 51.785 C 127.368 52.060,95.451 54.786,67.721 59.588 C 61.950 60.588,55.829 61.750,54.167 62.163 C 53.846 62.242,53.270 62.348,52.887 62.397 C 52.504 62.447,51.591 62.640,50.859 62.827 C 50.127 63.014,49.334 63.167,49.097 63.167 C 48.860 63.167,48.667 63.246,48.667 63.343 C 48.667 63.440,48.588 63.471,48.492 63.412 C 48.326 63.309,46.764 63.606,46.420 63.806 C 46.330 63.858,46.142 63.916,46.003 63.935 C 45.864 63.953,45.000 64.156,44.083 64.384 C 43.167 64.613,41.554 65.002,40.500 65.248 C 30.695 67.542,20.832 70.266,10.833 73.439 C 5.582 75.106,4.083 75.641,4.083 75.848 C 4.083 75.952,5.846 76.820,8.000 77.776 C 10.154 78.732,12.329 79.717,12.833 79.965 C 13.338 80.213,13.806 80.397,13.875 80.375 C 13.944 80.352,14.000 80.408,14.000 80.500 C 14.000 80.592,14.106 80.667,14.236 80.667 C 14.366 80.667,14.835 80.846,15.278 81.066 C 18.736 82.780,18.347 82.759,21.748 81.414 C 22.787 81.003,23.740 80.667,23.865 80.667 C 23.990 80.667,24.240 80.564,24.421 80.438 C 25.046 80.002,41.021 74.735,47.167 72.938 C 47.946 72.710,49.347 72.294,50.281 72.013 C 51.955 71.510,52.835 71.263,59.417 69.446 C 63.325 68.367,75.690 65.171,76.417 65.052 C 76.692 65.007,77.329 64.858,77.833 64.721 C 78.337 64.583,79.050 64.432,79.417 64.384 C 79.783 64.336,80.158 64.238,80.250 64.165 C 80.471 63.989,87.586 62.416,93.400 61.257 C 97.426 60.455,99.889 59.987,106.583 58.754 C 114.934 57.216,136.360 54.180,137.404 54.386 C 137.660 54.437,137.628 54.461,137.281 54.477 C 135.428 54.567,119.061 57.129,112.000 58.434 C 106.190 59.508,98.397 61.067,96.250 61.584 C 95.700 61.717,94.950 61.872,94.583 61.929 C 94.217 61.986,93.872 62.060,93.818 62.094 C 93.763 62.127,93.013 62.313,92.151 62.508 C 89.902 63.014,89.417 63.131,89.417 63.165 C 89.417 63.178,89.154 63.222,88.833 63.262 C 88.513 63.302,88.138 63.381,88.000 63.437 C 87.862 63.494,87.552 63.559,87.311 63.582 C 87.069 63.606,86.244 63.817,85.477 64.051 C 84.711 64.285,83.108 64.708,81.917 64.991 C 75.705 66.464,62.062 70.118,58.000 71.396 C 57.587 71.526,56.837 71.749,56.333 71.892 C 52.570 72.961,44.735 75.453,39.917 77.113 C 38.450 77.618,37.175 78.046,37.083 78.064 C 36.840 78.111,34.322 79.000,33.833 79.211 C 33.604 79.310,33.366 79.380,33.303 79.366 C 33.240 79.352,32.903 79.461,32.553 79.607 C 32.203 79.753,31.879 79.867,31.833 79.861 C 31.787 79.855,31.600 79.946,31.417 80.064 C 31.233 80.183,30.519 80.473,29.829 80.710 C 29.139 80.946,28.389 81.219,28.162 81.316 C 27.935 81.412,26.512 81.936,25.000 82.481 C 21.556 83.720,21.667 83.674,21.667 83.846 C 21.667 83.989,22.586 84.444,24.500 85.250 C 25.046 85.480,25.888 85.847,26.371 86.066 C 26.854 86.285,28.563 87.044,30.167 87.754 C 31.771 88.463,33.458 89.212,33.917 89.419 C 38.605 91.538,38.507 91.503,39.081 91.254 C 39.357 91.134,40.446 90.645,41.500 90.167 C 44.594 88.762,54.474 84.504,59.333 82.479 C 60.204 82.117,61.067 81.752,61.250 81.669 C 62.820 80.961,63.558 80.659,63.954 80.562 C 64.208 80.500,64.454 80.398,64.500 80.336 C 64.625 80.166,75.708 75.842,78.583 74.841 C 79.042 74.681,81.217 73.894,83.417 73.092 C 88.341 71.297,102.668 66.511,105.583 65.687 C 106.225 65.506,107.180 65.202,107.706 65.012 C 108.232 64.821,108.832 64.634,109.040 64.595 C 109.247 64.556,109.417 64.513,109.417 64.500 C 109.417 64.476,109.703 64.399,110.208 64.287 C 110.323 64.261,110.494 64.192,110.588 64.134 C 111.029 63.857,119.919 61.411,127.417 59.503 C 131.028 58.584,136.866 57.193,138.583 56.842 C 138.950 56.768,140.877 56.359,142.865 55.935 C 148.738 54.683,154.925 53.516,160.790 52.554 C 163.156 52.167,164.859 51.636,163.446 51.727 C 163.247 51.740,161.283 51.766,159.083 51.785 M140.127 54.115 C 139.968 54.156,139.668 54.158,139.460 54.118 C 139.253 54.078,139.383 54.044,139.750 54.042 C 140.117 54.040,140.286 54.073,140.127 54.115 M138.625 54.282 C 138.465 54.323,138.202 54.323,138.042 54.282 C 137.881 54.240,138.012 54.205,138.333 54.205 C 138.654 54.205,138.785 54.240,138.625 54.282 " stroke="none" fill="#fc6404" fill-rule="evenodd"></path><path id="path1" d="M131.667 27.773 L 131.667 51.545 133.708 51.442 C 134.831 51.385,136.781 51.290,138.042 51.230 L 140.333 51.122 140.333 27.561 L 140.333 4.000 136.000 4.000 L 131.667 4.000 131.667 27.773 M3.667 34.177 L 3.667 61.021 14.792 60.950 C 26.736 60.873,26.301 60.902,30.115 59.938 C 33.950 58.968,38.581 56.600,40.944 54.400 C 41.377 53.997,41.786 53.667,41.854 53.667 C 41.960 53.667,43.034 52.518,44.581 50.750 C 50.565 43.914,51.779 30.752,47.248 21.849 C 44.311 16.078,38.769 11.380,32.212 9.105 C 27.775 7.566,25.312 7.337,13.125 7.335 L 3.667 7.333 3.667 34.177 M24.183 15.936 C 24.311 16.039,24.798 16.171,25.265 16.230 C 40.032 18.105,46.057 36.694,35.345 47.334 C 31.201 51.450,27.186 52.664,17.708 52.666 L 12.500 52.667 12.500 34.150 L 12.500 15.634 18.224 15.692 C 22.107 15.731,24.024 15.810,24.183 15.936 M69.389 23.737 C 65.098 24.551,61.838 26.551,58.502 30.417 C 51.748 38.242,53.837 52.742,62.572 58.667 L 63.394 59.224 66.072 58.761 C 71.264 57.862,76.810 56.998,82.333 56.228 L 87.917 55.449 88.500 54.860 C 90.283 53.059,90.399 52.733,89.491 52.074 C 88.160 51.107,83.872 47.698,83.761 47.518 C 83.548 47.173,83.385 47.333,82.538 48.720 C 77.844 56.400,66.868 55.418,63.992 47.061 C 63.813 46.541,63.667 46.051,63.667 45.974 C 63.667 45.897,69.697 45.833,77.068 45.833 L 90.470 45.833 90.591 44.377 C 90.922 40.409,89.920 33.796,88.869 33.006 C 88.804 32.957,88.490 32.395,88.172 31.757 C 85.159 25.710,77.109 22.273,69.389 23.737 M108.333 23.685 C 106.927 23.908,105.107 24.360,104.875 24.543 C 104.760 24.634,104.667 24.664,104.667 24.611 C 104.667 24.311,101.313 25.839,99.834 26.813 C 98.783 27.505,96.500 29.617,96.500 29.897 C 96.500 30.253,101.259 36.000,101.554 36.000 C 101.668 36.000,102.171 35.578,102.672 35.063 C 107.256 30.350,115.218 29.901,117.458 34.229 C 117.700 34.699,117.882 35.171,117.862 35.279 C 117.841 35.387,117.898 35.520,117.988 35.576 C 118.078 35.632,118.109 35.788,118.057 35.924 C 118.005 36.060,118.053 36.279,118.162 36.411 C 118.544 36.872,118.153 36.965,115.376 37.077 C 103.485 37.557,97.791 40.097,95.767 45.826 C 94.775 48.631,95.162 54.673,96.318 54.446 C 96.556 54.400,98.756 54.152,101.208 53.896 C 103.660 53.640,105.667 53.383,105.667 53.325 C 105.667 53.268,105.383 52.922,105.035 52.557 C 104.000 51.468,103.681 49.606,104.319 48.368 C 105.517 46.043,108.960 44.918,115.936 44.573 L 118.123 44.465 118.207 45.441 C 118.254 45.978,118.218 46.509,118.127 46.623 C 118.037 46.736,118.010 46.952,118.068 47.102 C 118.125 47.253,118.087 47.479,117.982 47.604 C 117.878 47.730,117.848 47.833,117.917 47.833 C 117.985 47.833,117.947 47.946,117.833 48.083 C 117.719 48.221,117.670 48.333,117.723 48.333 C 117.959 48.333,116.564 50.745,115.901 51.483 C 115.021 52.461,114.984 52.671,115.708 52.570 C 116.268 52.492,125.805 51.833,126.374 51.833 C 126.889 51.833,126.731 35.609,126.196 33.549 C 124.259 26.075,117.337 22.253,108.333 23.685 M159.173 23.845 C 155.903 24.551,152.859 26.197,150.523 28.522 C 149.300 29.739,147.833 31.624,147.833 31.979 C 147.833 32.082,147.758 32.167,147.667 32.167 C 147.575 32.167,147.500 32.279,147.500 32.417 C 147.500 32.554,147.435 32.667,147.357 32.667 C 147.133 32.667,146.049 35.157,145.605 36.695 C 144.395 40.875,144.619 46.744,146.119 50.184 L 146.433 50.904 150.841 50.857 C 156.435 50.798,156.378 50.811,155.599 49.781 C 155.139 49.172,154.001 46.888,154.106 46.783 C 154.145 46.744,154.101 46.515,154.009 46.274 L 153.842 45.835 167.296 45.793 L 180.750 45.750 180.895 43.833 C 181.653 33.846,176.822 26.288,168.200 23.970 C 166.240 23.444,161.344 23.376,159.173 23.845 M199.468 23.839 C 197.896 24.226,196.363 24.908,195.028 25.814 C 193.761 26.675,193.833 26.699,193.833 25.417 L 193.833 24.333 189.492 24.333 L 185.152 24.333 185.242 24.875 C 185.561 26.777,185.665 31.856,185.666 45.542 L 185.667 61.000 190.000 61.000 L 194.333 61.000 194.333 51.287 C 194.333 38.001,194.623 36.237,197.217 33.712 C 199.068 31.910,203.076 30.995,204.674 32.010 C 206.454 33.140,206.907 33.004,207.076 31.292 C 207.139 30.649,207.257 30.002,207.337 29.853 C 207.563 29.435,208.206 24.472,208.053 24.329 C 207.218 23.550,201.882 23.246,199.468 23.839 M74.417 31.340 C 75.692 31.521,77.167 31.955,77.167 32.149 C 77.167 32.217,77.430 32.397,77.752 32.551 C 79.366 33.320,80.809 35.299,81.574 37.792 L 81.689 38.167 72.845 38.167 C 65.562 38.167,64.000 38.127,64.000 37.943 C 64.000 35.699,68.565 31.797,71.734 31.333 C 72.951 31.154,73.121 31.155,74.417 31.340 M164.695 31.334 C 165.840 31.500,167.236 31.912,167.564 32.181 C 167.666 32.265,168.206 32.662,168.764 33.063 C 170.162 34.068,171.833 36.715,171.833 37.923 C 171.833 38.134,170.640 38.167,163.000 38.167 C 158.142 38.167,154.167 38.131,154.167 38.088 C 154.167 36.823,157.043 33.366,158.792 32.531 C 159.090 32.388,159.333 32.221,159.333 32.159 C 159.333 31.629,162.919 31.077,164.695 31.334 M346.167 44.636 C 338.626 46.607,338.865 58.070,346.482 59.769 C 350.112 60.579,355.530 58.365,353.686 56.826 C 352.622 55.938,352.470 55.915,351.801 56.546 C 348.208 59.935,342.493 56.383,343.328 51.280 C 344.049 46.869,348.744 44.902,351.640 47.798 C 352.247 48.405,352.422 48.502,352.569 48.314 C 352.668 48.187,353.031 47.873,353.375 47.617 C 354.161 47.029,354.157 46.847,353.341 46.110 C 351.575 44.515,348.806 43.946,346.167 44.636 M361.460 44.593 C 354.824 46.201,353.750 56.255,359.904 59.155 C 365.952 62.004,372.535 57.394,371.545 51.001 C 370.816 46.291,366.298 43.420,361.460 44.593 M378.583 44.566 C 377.504 44.908,376.942 45.261,376.200 46.067 L 375.500 46.826 375.480 45.955 C 375.469 45.475,375.473 44.990,375.488 44.875 C 375.507 44.725,375.178 44.667,374.316 44.667 L 373.116 44.667 373.224 46.292 C 373.283 47.185,373.332 50.560,373.332 53.792 L 373.333 59.667 374.500 59.667 L 375.667 59.667 375.667 55.528 C 375.667 48.576,376.589 46.583,379.806 46.583 C 382.651 46.583,382.900 47.190,382.969 54.292 L 383.021 59.667 384.243 59.667 L 385.466 59.667 385.541 54.958 C 385.651 48.130,386.396 46.517,389.447 46.504 C 392.429 46.491,393.000 47.833,393.000 54.851 L 393.000 59.667 394.250 59.667 L 395.500 59.667 395.497 54.708 C 395.492 46.144,394.537 44.411,389.833 44.428 C 387.469 44.437,384.839 45.861,384.832 47.136 C 384.831 47.290,384.607 47.028,384.334 46.552 C 383.258 44.675,380.859 43.847,378.583 44.566 M366.137 47.083 C 370.073 49.227,369.710 55.942,365.575 57.489 C 360.147 59.520,356.107 52.906,359.862 48.135 C 361.159 46.486,364.128 45.988,366.137 47.083 M173.000 48.373 C 170.710 52.415,166.557 54.485,162.037 53.839 C 160.482 53.617,160.737 53.582,151.000 55.357 C 149.267 55.673,149.412 56.039,152.083 58.082 C 160.448 64.482,172.429 62.723,179.522 54.055 C 180.750 52.554,180.890 52.879,178.122 50.805 C 176.818 49.828,175.314 48.646,174.782 48.180 C 173.595 47.142,173.704 47.130,173.000 48.373 M337.352 56.399 C 336.391 56.932,336.209 58.335,336.986 59.206 C 337.659 59.958,338.912 59.997,339.621 59.288 C 341.103 57.806,339.195 55.378,337.352 56.399 M137.500 58.166 C 136.446 58.421,134.702 58.833,133.625 59.081 L 131.667 59.533 131.667 60.266 L 131.667 61.000 136.000 61.000 L 140.333 61.000 140.333 59.333 L 140.333 57.667 139.875 57.684 C 139.623 57.693,138.554 57.910,137.500 58.166 M127.000 60.833 C 127.000 60.925,127.112 61.000,127.250 61.000 C 127.388 61.000,127.500 60.925,127.500 60.833 C 127.500 60.742,127.388 60.667,127.250 60.667 C 127.112 60.667,127.000 60.742,127.000 60.833 " stroke="none" fill="#242424" fill-rule="evenodd"></path><path id="path2" d="" stroke="none" fill="#2c2c2c" fill-rule="evenodd"></path></g></svg>